<?xml version="1.0" standalone="no"?><!DOCTYPE svg PUBLIC "-//W3C//DTD SVG 1.1//EN" "http://www.w3.org/Graphics/SVG/1.1/DTD/svg11.dtd"><svg t="1521459194994" class="icon" style="" viewBox="0 0 1024 1024" version="1.1" xmlns="http://www.w3.org/2000/svg" p-id="2251" xmlns:xlink="http://www.w3.org/1999/xlink" width="200" height="200"><defs><style type="text/css"></style></defs><path d="M512 512m-479.99999999 0a479.99999999 479.99999999 0 1 0 959.99999998 0 479.99999999 479.99999999 0 1 0-960 0Z" fill="#55C8A1" p-id="2252"></path><path d="M319.99999999 429.7142853c-27.42857155-27.42857155-68.57142845-27.42857155-95.99999999 0-27.42857155 27.42857155-27.42857155 68.57142845 0 96l205.7142853 205.71428627c27.42857155 27.42857155 75.42857155 27.42857155 102.85714311-6.85714312l274.2857147-342.85714312c20.57142847-27.42857155 20.57142847-75.42857155-13.71428622-96.00000001-27.42857155-20.57142847-75.42857155-20.57142847-96 13.71428625L470.85714313 580.57142845 319.99999999 429.7142853z" fill="#FFFFFF" p-id="2253"></path></svg>